<?xml version="1.0" encoding="utf-8"?>
<!-- Generator: Adobe Illustrator 22.0.1, SVG Export Plug-In . SVG Version: 6.00 Build 0)  -->
<svg version="1.1" id="Capa_1" xmlns="http://www.w3.org/2000/svg" xmlns:xlink="http://www.w3.org/1999/xlink" x="0px" y="0px"
	 viewBox="0 0 778 485" style="enable-background:new 0 0 778 485;" xml:space="preserve">
<style type="text/css">
	.st0{fill:#ECF6FB;}
</style>
<path class="st0" d="M761,292.5c-4.7-5-11.5-10.5-20.5-16.5s-19.3-11.6-30.8-16.8c-11.5-5.1-21.9-9-31.2-11.7s-14.9-1.9-16.8,2.3
	c-1.8,4.1-5.7,11.5-11.7,22.2s-12.7,20.5-20,29.5s-15.8,17.8-25.3,26.3s-20,16.5-31.7,24.2s-25,14.8-40,21.5s-30.3,12-46,16
	s-31.7,6.5-48,7.5l-24.5,1.5l-0.2,0.3L414,399v9c0,6,0.5,10.7,1.5,14c1,3.3,3.3,7.7,6.8,13.2s8.2,10.5,14.2,14.8s14.2,8.5,24.5,12.5
	s21.3,7.2,33,9.5s24,3.7,37,4s22.3,0.2,28-0.5s12.7-2,21-4s17.8-5.2,28.5-9.5s21.3-9.8,32-16.5c10.7-6.7,21.7-14.8,33-24.3
	s17.1-14.5,17.2-15.2c0.2-0.7,1.1-1.5,2.6-2.5s5.7-5.6,12.7-13.7c7-8.2,15.6-18.7,25.7-31.6c10.2-12.8,18.6-24.5,25.3-35.2
	s10.2-17.2,10.5-19.5S765.7,297.5,761,292.5z"/>
<path class="st0" d="M358.5,397.5l-21.5-1c-14.3-0.6-28.8-2.7-43.5-6s-28.7-7.7-42-13s-25.7-11.2-37-17.5S193,347,184,340
	s-16.9-13.7-23.7-20.2c-6.9-6.5-10.4-10.1-10.6-10.8c-0.1-0.7-0.5-1-1.2-1s-4.6-5.2-11.8-15.5c-7.1-10.3-13.2-20.5-18.2-30.5
	s-7.7-15.6-8.2-16.8c-0.5-1.1-2.5-1.5-5.8-1.2c-3.3,0.3-11.3,2.8-24,7.5c-12.7,4.7-24.7,10.2-36,16.5c-11.3,6.3-20.3,12.4-26.8,18.2
	c-6.5,5.9-10.2,9.5-11.2,10.8s-1.3,3.2-1,5.5s3.7,8.7,10,19s15.3,22.8,27,37.5s20.7,25.7,27.2,33c6.5,7.3,16.1,16.4,28.8,27.2
	c12.7,10.9,23.8,19.3,33.5,25.3s19.5,11.2,29.5,15.5s20.7,7.8,32,10.5s25.8,4,43.5,4s32.2-1.2,43.5-3.5s22.3-5.6,32.8-9.8
	c10.5-4.1,18.5-8.3,24-12.4c5.5-4.2,9.8-8.5,13-13c3.1-4.5,5.4-9,6.7-13.3s2-9.5,2-15.5v-9l-0.3-0.2L358.5,397.5z"/>
<path class="st0" d="M518.5,254.5l0.2-0.3l0.3-0.2l0.3-0.2l0.2-0.3l1-0.5l1-0.5l0.2-0.3l0.3-0.2l0.3-0.2l0.2-0.3l1-0.5
	c0.7-0.3,4.9-2.7,12.8-7.2c7.8-4.5,16.9-8.7,27.4-12.6c10.5-3.8,21.1-6.5,31.8-8.2s22.8-2.2,36.5-1.5s20.9,0.1,21.7-1.7
	c0.9-1.9,2.5-8.5,4.8-19.8s3.7-24.3,4-39s-0.2-27-1.5-37s-3.1-18.9-5.3-26.8c-2.1-7.8-10.4-10.9-24.7-9.2s-30.5,4.8-48.5,9.5
	s-33.4,9.6-46.2,14.7c-12.9,5.2-18.8,9.5-17.8,12.8s2.8,10.8,5.5,22.5s4.2,23.2,4.5,34.5s0.2,20-0.5,26s-2.5,14.3-5.5,25l-4.5,16
	l-0.5,1.5L517,252l-0.3,1.5l-0.2,1.5l1-0.2L518.5,254.5z"/>
<path class="st0" d="M116,205.5c2.7,10.3,12.2,15.4,28.7,15.3c16.5-0.2,27.1,0,31.8,0.7s12.8,2.8,24.5,6.5s23,8.5,34,14.5l16.5,9
	l0.2,0.3l0.3,0.2l0.3,0.2l0.2,0.3l1,0.5l1,0.5l1,0.5l1,0.5l0.2,0.3l0.3,0.2v-3l-0.5-1.5L256,249l-0.5-1.5c-0.3-1-1.3-4.3-3-10
	s-3.3-14.7-5-27s-2.2-24-1.5-35s2.8-23.2,6.3-36.5s-2.1-22.7-16.8-28.2s-30.7-10.5-48-14.8s-32.8-7.3-46.5-9s-20.8-2.1-21.3-1.2
	c-0.5,0.8-2,8-4.7,21.7s-4.2,27.8-4.5,42.5s-0.2,25,0.5,31S113.3,195.2,116,205.5z"/>
<path class="st0" d="M418.7,170.8c8.2-10.5,16.5-19.5,25-27s17.5-14.3,26.8-20.3s15-9.5,17-10.5s3.1-1.6,3.2-1.8l0.3-0.2v-1.5
	c0-1-2.2-5-6.5-12s-11.3-16.3-20.8-28s-17.9-20.8-25.2-27.3s-16.7-14-28-22.7S392.7,6.3,391,6s-5.8,1.8-12.5,6.5s-15,11.2-25,19.5
	s-19.9,17.7-29.8,28.2C313.9,70.7,305.5,81,298.5,91s-10.8,16-11.5,18l-1,3l18,12c12,8,21.3,15,28,21s13.7,13.7,21,23
	s13.8,19,19.5,29s8.8,15.8,9.5,17.5s1.2,2.8,1.5,3.5l0.5,1l0.5,1.5l0.5,1.5l0.3,0.2l0.2,0.3l0.2,0.3l0.3,0.2l0.3,0.2l0.2,0.3
	l0.2,0.3l0.3,0.2l0.5-1l0.5-1l0.5-1l0.5-1l0.5-1l0.5-1l8.3-15.8C403.8,191.7,410.6,181.3,418.7,170.8z"/>
<path class="st0" d="M600,239c-8.3,1-18.3,3.3-30,7s-22.2,8-31.5,13c-9.3,5-20.2,12-32.5,21s-24.1,19.1-35.3,30.2
	c-11.1,11.2-17.9,18-20.4,20.3s-5.2,5.5-8,9.5c-2.9,4-7,10.5-12.3,19.5l-8,13.5l-0.5,1l-0.5,1l-0.5,1.5L420,378l-0.3,0.2l-0.2,0.3
	l0.2,0.3l0.3,0.2l0.3,0.2l0.2,0.3H436c10.3,0,17.2-0.2,20.5-0.5s11.2-1.8,23.5-4.5s24.8-6.7,37.5-12s24.7-11.7,36-19
	s21.7-15.2,31-23.5s17.8-16.8,25.5-25.5c7.7-8.7,14.6-17.8,20.7-27.3c6.2-9.5,10.2-16.5,12-21.2c1.9-4.7-2.7-7.3-13.7-7.8
	S608.3,238,600,239z"/>
<path class="st0" d="M195.5,243c-11.3-3-25.5-4.6-42.5-4.8c-17-0.1-25.4,0.5-25.3,1.8l0.3,2l0.5,1l0.5,1l9.5,16
	c6.3,10.7,14.2,21.5,23.5,32.5s18.6,20.4,27.7,28.3c9.2,7.8,19.3,15.2,30.3,22.2s21.8,12.9,32.5,17.5c10.7,4.7,21.8,8.5,33.5,11.5
	s20.2,4.8,25.5,5.5c5.3,0.7,13.7,1.1,25,1.3l17,0.2l-0.2-2l-0.3-2l-0.5-1l-0.5-1l-0.5-1c-0.3-0.6-2.2-3.8-5.5-9.5s-9-13.7-17-24
	s-17.5-20.7-28.5-31c-11-10.3-22.4-19.9-34.2-28.7c-11.9-8.9-23.8-16.3-35.8-22.3S206.8,246,195.5,243z"/>
<path class="st0" d="M371,235.5c-4.7-11-10.5-22-17.5-33s-14.3-20.6-21.8-28.7c-7.5-8.2-16.1-16.2-26-24c-9.8-7.9-17.1-13.1-22-15.6
	c-4.8-2.5-7.9-2.1-9.4,1c-1.5,3.2-3.6,10.6-6.3,22.3s-4,24.5-4,38.5s1.2,25.8,3.5,35.5s5.5,19.2,9.5,28.5s7.1,15.1,9.3,17.2
	c2.1,2.2,8.7,8.4,19.7,18.8c11,10.4,21.2,20.8,30.5,31.5c9.3,10.7,17.1,20.4,23.2,29.3L369,370l0.5,1l0.5,1l0.3,0.2l0.2,0.3l0.2,0.3
	l0.3,0.2l0.5,1l0.5,1l0.3,0.2l0.2,0.3l1.5,0.3l1.5,0.2l-0.2-3l-0.3-3l-0.5-4c-0.3-2.6-0.8-6.8-1.5-12.5s-1-18.2-1-37.5
	s1-34.8,3-46.5S375.7,246.5,371,235.5z"/>
<path class="st0" d="M471.5,292.5c13-11.7,22-23.2,27-34.5s8.5-21.5,10.5-30.5s3.2-19.3,3.5-31s0-21-1-28s-3-15.2-6-24.5
	s-5.1-14.1-6.2-14.2c-1.2-0.2-2.6,0.2-4.3,1.2s-8.2,5.4-19.5,13.2c-11.3,7.9-17,12.1-17,12.8s-2.4,3.2-7.2,7.5
	c-4.9,4.3-8.5,7.7-11,10s-5.1,5.4-7.8,9.3c-2.7,3.8-7.1,10.5-13.2,20c-6.2,9.5-11.8,19.5-16.8,30.2s-6.5,22.2-4.5,34.5
	s3.2,25.7,3.5,40s-0.2,28-1.5,41l-2,19.5l-0.5,2.5L397,374v2l0.3,0.2l0.2,0.3h3l0.2-0.3l0.3-0.2l0.5-1l0.5-1l0.5-1l0.5-1l0.3-0.2
	l0.2-0.3l0.2-0.3l0.3-0.2l0.5-1c0.3-0.6,2.8-4.5,7.5-11.5s12.5-16.8,23.5-29.5S458.5,304.2,471.5,292.5z"/>
</svg>
