<?xml version="1.0" encoding="utf-8"?>
<!-- Generator: Adobe Illustrator 22.0.1, SVG Export Plug-In . SVG Version: 6.00 Build 0)  -->
<svg version="1.1" id="Capa_1" xmlns="http://www.w3.org/2000/svg" xmlns:xlink="http://www.w3.org/1999/xlink" x="0px" y="0px"
	 viewBox="0 0 778 485" style="enable-background:new 0 0 778 485;" xml:space="preserve">
<style type="text/css">
	.st0{fill:#ECF6FB;}
</style>
<g>
	<path class="st0" d="M414,408v-9l0.3-0.2l0.2-0.3L439,397c16.3-1,32.3-3.5,48-7.5c15.7-4,31-9.3,46-16s28.3-13.8,40-21.5
		s22.2-15.7,31.7-24.2c9.5-8.5,18-17.3,25.3-26.3s14-18.8,20-29.5s9.9-18.1,11.7-22.2c1.9-4.2,7.5-5,16.8-2.3s19.7,6.6,31.2,11.7
		c11.5,5.2,21.8,10.8,30.8,16.8s15.8,11.5,20.5,16.5s6.8,8.7,6.5,11s-3.8,8.8-10.5,19.5s-15.1,22.4-25.3,35.2
		c-10.1,12.9-18.7,23.4-25.7,31.6c-7,8.1-11.2,12.7-12.7,13.7c-1.5,1-2.4,1.8-2.6,2.5c-0.1,0.7-5.9,5.7-17.2,15.2
		c-11.3,9.5-22.3,17.6-33,24.3s-21.3,12.2-32,16.5s-20.2,7.5-28.5,9.5s-15.3,3.3-21,4s-15,0.8-28,0.5s-25.3-1.7-37-4
		c-11.7-2.3-22.7-5.5-33-9.5s-18.5-8.2-24.5-12.5s-10.7-9.3-14.2-14.8c-3.5-5.5-5.8-9.9-6.8-13.2S414,414,414,408z"/>
	<path class="st0" d="M337,396.5l21.5,1l0.2,0.3l0.3,0.2v9c0,6-0.7,11.2-2,15.5s-3.6,8.8-6.7,13.3c-3.2,4.5-7.5,8.8-13,13
		c-5.5,4.1-13.5,8.3-24,12.4c-10.5,4.2-21.5,7.5-32.8,9.8s-25.8,3.5-43.5,3.5s-32.2-1.3-43.5-4s-22-6.2-32-10.5s-19.8-9.5-29.5-15.5
		s-20.8-14.4-33.5-25.3c-12.7-10.8-22.3-19.9-28.8-27.2c-6.5-7.3-15.5-18.3-27.2-33s-20.7-27.2-27-37.5s-9.7-16.7-10-19s0-4.2,1-5.5
		s4.7-4.9,11.2-10.8c6.5-5.8,15.5-11.9,26.8-18.2s23.3-11.8,36-16.5c12.7-4.7,20.7-7.2,24-7.5s5.3,0.1,5.8,1.2
		c0.5,1.2,3.2,6.8,8.2,16.8c5,10,11.1,20.2,18.2,30.5c7.2,10.3,11.1,15.5,11.8,15.5s1.1,0.3,1.2,1c0.2,0.7,3.7,4.3,10.6,10.8
		c6.8,6.5,14.7,13.2,23.7,20.2s19.2,13.7,30.5,20s23.7,12.2,37,17.5c13.3,5.3,27.3,9.7,42,13S322.7,395.9,337,396.5z"/>
	<path class="st0" d="M523.5,251l-1,0.5l-0.2,0.3L522,252l-0.3,0.2l-0.2,0.3l-1,0.5l-1,0.5l-0.2,0.3L519,254l-0.3,0.2l-0.2,0.3
		l-1,0.3l-1,0.2l0.2-1.5l0.3-1.5l0.5-1.5l0.5-1.5l4.5-16c3-10.7,4.8-19,5.5-25s0.8-14.7,0.5-26s-1.8-22.8-4.5-34.5
		c-2.7-11.7-4.5-19.2-5.5-22.5c-1-3.3,4.9-7.6,17.8-12.8c12.8-5.1,28.2-10,46.2-14.7s34.2-7.8,48.5-9.5s22.6,1.4,24.7,9.2
		c2.2,7.9,4,16.8,5.3,26.8s1.8,22.3,1.5,37c-0.3,14.7-1.7,27.7-4,39s-3.9,17.9-4.8,19.8c-0.8,1.8-8,2.4-21.7,1.7s-25.8-0.2-36.5,1.5
		s-21.3,4.4-31.8,8.2c-10.5,3.9-19.6,8.1-27.4,12.6C528.4,248.3,524.2,250.7,523.5,251L523.5,251z"/>
	<path class="st0" d="M255.5,247.5l0.5,1.5l0.5,1.5l0.5,1.5v3l-0.3-0.2l-0.2-0.3l-1-0.5l-1-0.5l-1-0.5l-1-0.5l-0.2-0.3L252,252
		l-0.3-0.2l-0.2-0.3l-16.5-9c-11-6-22.3-10.8-34-14.5s-19.8-5.8-24.5-6.5s-15.3-0.9-31.8-0.7c-16.5,0.1-26-5-28.7-15.3
		c-2.7-10.3-4.3-18.5-5-24.5s-0.8-16.3-0.5-31c0.3-14.7,1.8-28.8,4.5-42.5c2.7-13.7,4.2-20.9,4.7-21.7c0.5-0.9,7.6-0.5,21.3,1.2
		s29.2,4.7,46.5,9s33.3,9.3,48,14.8c14.7,5.5,20.3,14.9,16.8,28.2c-3.5,13.3-5.6,25.5-6.3,36.5s-0.2,22.7,1.5,35s3.3,21.3,5,27
		S255.2,246.5,255.5,247.5z"/>
	<g>
		<path class="st0" d="M491,109.5v1.5l-0.3,0.2c-0.1,0.2-1.2,0.8-3.2,1.8s-7.7,4.5-17,10.5c-9.3,6-18.3,12.8-26.8,20.3
			c-8.5,7.5-16.8,16.5-25,27c-8.1,10.5-14.9,20.9-20.4,31.4L390,218l-0.5,1l-0.5,1l-0.5,1l-0.5,1l-0.5,1l-0.5,1l-0.3-0.2l-0.2-0.3
			l-0.2-0.3L386,223l-0.3-0.2l-0.2-0.3l-0.2-0.3L385,222l-0.5-1.5L384,219l-0.5-1c-0.3-0.7-0.8-1.8-1.5-3.5
			c-0.7-1.7-3.8-7.5-9.5-17.5c-5.7-10-12.2-19.7-19.5-29c-7.3-9.3-14.3-17-21-23c-6.7-6-16-13-28-21l-18-12l1-3c0.7-2,4.5-8,11.5-18
			c7-10,15.4-20.3,25.2-30.8c9.9-10.5,19.8-19.9,29.8-28.2s18.3-14.8,25-19.5c6.7-4.7,10.8-6.8,12.5-6.5c1.7,0.3,8.2,4.8,19.5,13.5
			c11.3,8.7,20.7,16.2,28,22.7c7.3,6.5,15.7,15.6,25.2,27.3c9.5,11.7,16.5,21,20.8,28C488.8,104.5,491,108.5,491,109.5L491,109.5z"
			/>
		<path class="st0" d="M436,379.5h-15.5l-0.2-0.3L420,379l-0.3-0.2l-0.2-0.3l0.2-0.3l0.3-0.2l0.5-1.5l0.5-1.5l0.5-1l0.5-1l8-13.5
			c5.3-9,9.4-15.5,12.3-19.5c2.8-4,5.5-7.2,8-9.5c2.5-2.3,9.3-9.1,20.4-20.3c11.2-11.1,23-21.2,35.3-30.2c12.3-9,23.2-16,32.5-21
			c9.3-5,19.8-9.3,31.5-13s21.7-6,30-7s18-1.3,29-0.8c11,0.5,15.6,3.1,13.7,7.8c-1.8,4.7-5.8,11.7-12,21.2
			c-6.1,9.5-13,18.6-20.7,27.3s-16.2,17.2-25.5,25.5s-19.7,16.2-31,23.5s-23.3,13.7-36,19s-25.2,9.3-37.5,12s-20.2,4.2-23.5,4.5
			S446.3,379.5,436,379.5z"/>
		<path class="st0" d="M351.5,372l0.5,1l0.5,1l0.5,1l0.3,2l0.2,2l-17-0.2c-11.3-0.2-19.7-0.6-25-1.3S297.7,375,286,372
			s-22.8-6.8-33.5-11.5C241.8,355.9,231,350,220,343s-21.1-14.4-30.3-22.2c-9.1-7.9-18.4-17.3-27.7-28.3s-17.2-21.8-23.5-32.5
			l-9.5-16l-0.5-1l-0.5-1l-0.3-2c-0.1-1.3,8.3-1.9,25.3-1.8c17,0.2,31.2,1.8,42.5,4.8s23,7.5,35,13.5c12,6,23.9,13.4,35.8,22.3
			c11.8,8.8,23.2,18.4,34.2,28.7s20.5,20.7,28.5,31s13.7,18.3,17,24S351.2,371.4,351.5,372z"/>
		<path class="st0" d="M374.5,366l0.5,4l0.3,3l0.2,3l-1.5-0.2l-1.5-0.3l-0.2-0.3L372,375l-0.5-1l-0.5-1l-0.3-0.2l-0.2-0.3l-0.2-0.3
			L370,372l-0.5-1l-0.5-1l-9.3-13.2c-6.1-8.9-13.9-18.6-23.2-29.3S317,306.4,306,296s-17.6-16.6-19.7-18.8
			c-2.2-2.1-5.3-7.9-9.3-17.2c-4-9.3-7.2-18.8-9.5-28.5S264,210,264,196s1.3-26.8,4-38.5c2.7-11.7,4.8-19.1,6.3-22.3
			c1.5-3.1,4.6-3.5,9.4-1c4.9,2.5,12.2,7.7,22,15.6c9.9,7.8,18.5,15.8,26,24c7.5,8.1,14.8,17.7,21.8,28.7s12.8,22,17.5,33
			c4.7,11,6,22.3,4,34s-3,27.2-3,46.5s0.3,31.8,1,37.5C373.7,359.2,374.2,363.4,374.5,366L374.5,366z"/>
		<path class="st0" d="M404.5,370l-0.5,1l-0.3,0.2l-0.2,0.3l-0.2,0.3L403,372l-0.5,1l-0.5,1l-0.5,1l-0.5,1l-0.3,0.2l-0.2,0.3h-3
			l-0.2-0.3L397,376v-2l0.5-2.5l0.5-2.5l2-19.5c1.3-13,1.8-26.7,1.5-41s-1.5-27.7-3.5-40s-0.5-23.8,4.5-34.5s10.6-20.7,16.8-30.2
			c6.1-9.5,10.5-16.2,13.2-20c2.7-3.9,5.3-7,7.8-9.3c2.5-2.3,6.1-5.7,11-10c4.8-4.3,7.2-6.8,7.2-7.5s5.7-4.9,17-12.8
			c11.3-7.8,17.8-12.2,19.5-13.2s3.1-1.4,4.3-1.2c1.1,0.1,3.2,4.9,6.2,14.2c3,9.3,5,17.5,6,24.5s1.3,16.3,1,28s-1.5,22-3.5,31
			s-5.5,19.2-10.5,30.5c-5,11.3-14,22.8-27,34.5s-25,23.8-36,36.5s-18.8,22.5-23.5,29.5S404.8,369.4,404.5,370z"/>
	</g>
</g>
</svg>
